<svg width="52" height="47" viewBox="0 0 52 47" fill="none" xmlns="http://www.w3.org/2000/svg">
<rect x="0.887939" y="0.448242" width="50.688" height="46.3448" fill="#323238"/>
<g clip-path="url(#clip0_61385:205)">
<path d="M39.6273 16.7127C38.651 17.0898 37.6161 17.3385 36.5565 17.4508C37.674 16.8662 38.5102 15.9464 38.9091 14.8629C37.8602 15.4104 36.7112 15.7957 35.5124 16.002C34.7802 15.315 33.8279 14.8368 32.78 14.6299C31.7321 14.423 30.6372 14.4969 29.638 14.842C28.6389 15.187 27.782 15.7873 27.1791 16.5643C26.5762 17.3414 26.2553 18.2593 26.2583 19.1981C26.2562 19.5574 26.3026 19.9156 26.3964 20.2654C24.2675 20.1732 22.1848 19.6896 20.2843 18.8463C18.3838 18.0029 16.7082 16.8187 15.367 15.3709C14.6827 16.4016 14.4738 17.6215 14.7828 18.7821C15.0918 19.9426 15.8955 20.9566 17.0301 21.6174C16.1774 21.599 15.3428 21.3984 14.5993 21.0331V21.0912C14.5987 22.1719 15.0263 23.2195 15.8095 24.0558C16.5926 24.8922 17.683 25.4659 18.8953 25.6793C18.436 25.7881 17.9622 25.8433 17.4863 25.8433C17.1489 25.8439 16.8122 25.8149 16.4814 25.7567C16.8231 26.6862 17.4888 27.499 18.3854 28.0815C19.2819 28.664 20.3643 28.987 21.4813 29.0053C19.5862 30.3071 17.2444 31.0129 14.8339 31.0088C14.4074 31.0084 13.9813 30.986 13.5579 30.9416C15.9936 32.3267 18.8385 33.0614 21.7446 33.0557C23.7492 33.068 25.7366 32.7319 27.5912 32.067C29.4459 31.4022 31.1308 30.4217 32.5481 29.1828C33.9654 27.9438 35.0867 26.471 35.8468 24.85C36.607 23.229 36.9909 21.4921 36.9762 19.7403C36.9762 19.5375 36.9762 19.3348 36.9592 19.1366C38.0062 18.4735 38.9097 17.6527 39.6273 16.7127V16.7127Z" fill="white"/>
</g>
<defs>
<clipPath id="clip0_61385:205">
<rect width="26.0681" height="18.5379" fill="white" transform="translate(13.5599 14.517)"/>
</clipPath>
</defs>
</svg>
